# xmcd
#
# Track frame offsets:
#	150
#	14891
#	28840
#	45524
#	61531
#	74833
#	92513
#	107408
#	119660
#	135906
#	150151
#	166098
#	182833
#
# Disc length: 2636 seconds
# Revision: 0
# Processed by: cddbd v1.5.2PL0 Copyright (c) Steve Scherf et al.
# Submitted via: dBpowerAMP V12.0
#
DISCID=a20a4a0d
DTITLE=Anne Nørdsti - Så gøtt
DYEAR=2011
DGENRE=Danseband
TTITLE0=Du må forstå
TTITLE1=Så gøtt å gå
TTITLE2=Min kjærlighet til deg
TTITLE3=All You Ever Do is Bring Me Down
TTITLE4=Ta meg med
TTITLE5=Hjertet er en ensom jeger
TTITLE6=Ingen røyk uten ild
TTITLE7=The Lion Sleeps Tonight
TTITLE8=168 lange timer
TTITLE9="Ti Amo"
TTITLE10=Den siste mohikaner
TTITLE11=Telys og rosèvin
TTITLE12=The Gambler (feat. Frøya and Contrazt-Gro)
EXTD=
EXTT0=
EXTT1=
EXTT2=
EXTT3=
EXTT4=
EXTT5=
EXTT6=
EXTT7=
EXTT8=
EXTT9=
EXTT10=
EXTT11=
EXTT12=
PLAYORDER=
